<?xml version="1.0" encoding="iso-8859-1"?>
<!-- Generator: Adobe Illustrator 19.0.0, SVG Export Plug-In . SVG Version: 6.00 Build 0)  -->
<svg version="1.1" id="Layer_1" xmlns="http://www.w3.org/2000/svg" xmlns:xlink="http://www.w3.org/1999/xlink" x="0px" y="0px"
	 viewBox="0 0 512 512" style="enable-background:new 0 0 512 512;" xml:space="preserve">
<path style="fill:#FDD7AD;" d="M317.44,256c0.256,1.457,0.371,2.931,0.353,4.414c-0.512,12.65-5.411,24.726-13.859,34.163
	c-20.913,26.474-59.33,30.976-85.804,10.063c-3.734-2.948-7.115-6.329-10.063-10.063c-8.448-9.437-13.347-21.513-13.859-34.163
	c-0.018-1.483,0.097-2.957,0.353-4.414c0.026-0.83,0.15-1.66,0.353-2.472c4.167-17.567,17.337-31.612,34.604-36.899v-40.077
	c0-40.342-44.314-110.257-51.906-121.909C201.728,41.79,228.67,35.143,256,35.31c7.115-0.009,14.221,0.433,21.274,1.324
	c2.648,0.353,5.208,0.706,7.768,1.148c1.148,0.177,2.295,0.353,3.443,0.618c1.059,0.177,2.207,0.441,3.266,0.618
	c1.589,0.353,3.266,0.706,4.855,1.148c3.884,0.883,7.592,1.942,11.299,3.178c3.001,0.971,5.914,2.03,8.828,3.178
	c0.124-0.009,0.247,0.018,0.353,0.088c2.825,1.148,5.65,2.295,8.386,3.619c0.168,0,0.318,0.071,0.441,0.177
	c2.825,1.324,5.65,2.648,8.298,4.149c0.088,0,0.088,0.088,0.177,0.088c-7.592,11.652-51.906,81.567-51.906,121.909v40.077
	c17.267,5.288,30.438,19.332,34.604,36.899C317.29,254.341,317.414,255.17,317.44,256z"/>
<path style="fill:#E57E25;" d="M432.552,150.069c0,2.913-0.088,5.738-0.265,8.563c-0.071,0.406-0.097,0.821-0.088,1.236
	c-0.177,2.472-0.441,4.855-0.794,7.239c-0.353,2.825-0.794,5.561-1.324,8.298c-0.071,0.168-0.106,0.344-0.088,0.53
	c-0.088,0.23-0.15,0.468-0.177,0.706c-0.441,2.295-1.059,4.59-1.677,6.886c-0.353,1.412-0.794,2.825-1.236,4.149
	c-0.265,1.059-0.618,2.119-0.971,3.178l-0.794,2.383c-0.353,0.971-0.794,2.03-1.148,3.09c-0.441,0.971-0.794,1.942-1.236,3.001
	c-0.794,1.942-1.677,3.884-2.56,5.826c-0.327,0.847-0.715,1.677-1.148,2.472c-1.148,2.295-2.295,4.502-3.531,6.709
	c-13.003,22.713-31.409,41.878-53.583,55.79c-17.841,11.308-37.447,19.571-57.997,24.452c8.448-9.437,13.347-21.513,13.859-34.163
	c0.018-1.483-0.097-2.957-0.353-4.414c-0.026-0.83-0.15-1.66-0.353-2.472c-4.167-17.567-17.337-31.612-34.604-36.899v-40.077
	c0-1.739,0.088-3.478,0.265-5.208c0.018-0.53,0.071-1.068,0.177-1.589c0.018-0.653,0.071-1.298,0.177-1.942
	c0.018-0.3,0.079-0.6,0.177-0.883c0.009-0.477,0.071-0.953,0.177-1.412c0.018-0.327,0.079-0.653,0.177-0.971
	c0.177-1.324,0.441-2.56,0.706-3.796c-0.009-0.097,0.018-0.194,0.088-0.265v-0.265c0.071-0.071,0.097-0.168,0.088-0.265l0.265-1.324
	c0.265-0.883,0.441-1.854,0.618-2.737c0.097-0.159,0.159-0.344,0.177-0.53c0.441-1.854,0.971-3.708,1.501-5.65
	c0.274-0.962,0.591-1.898,0.971-2.825v-0.088c0.441-1.501,0.971-3.09,1.501-4.679c0.088-0.441,0.265-0.794,0.353-1.148
	c0.265-0.618,0.441-1.236,0.706-1.854l2.383-6.356c0.706-1.766,1.412-3.531,2.119-5.208c1.236-3.001,2.56-5.914,3.884-8.916
	c2.119-4.679,4.326-9.269,6.621-13.771c1.501-3.001,3.001-5.914,4.502-8.828c0.706-1.412,1.501-2.825,2.295-4.237
	c0.706-1.412,1.501-2.737,2.207-4.061c0.706-1.412,1.501-2.737,2.207-4.061c0.794-1.236,1.501-2.56,2.207-3.796
	c0.706-1.236,1.412-2.383,2.03-3.531c0.265-0.53,0.618-1.059,0.883-1.589c0.415-0.6,0.794-1.218,1.148-1.854
	c0.274-0.424,0.503-0.865,0.706-1.324c0.15-0.159,0.265-0.335,0.353-0.53c0.15-0.185,0.274-0.397,0.353-0.618l0.088-0.088
	c2.03-3.354,3.796-6.268,5.385-8.739c0.53-0.794,0.971-1.589,1.412-2.207c1.236-2.03,2.295-3.708,3.001-4.767
	c-0.088,0-0.088-0.088-0.177-0.088c-2.648-1.501-5.473-2.825-8.298-4.149c-0.124-0.106-0.274-0.177-0.441-0.177
	c-2.737-1.324-5.561-2.472-8.386-3.619c-0.106-0.071-0.23-0.097-0.353-0.088c-2.913-1.148-5.826-2.207-8.828-3.178
	c-3.708-1.236-7.415-2.295-11.299-3.178c-1.589-0.441-3.266-0.794-4.855-1.148c-1.059-0.177-2.207-0.441-3.266-0.618
	c-1.148-0.265-2.295-0.441-3.443-0.618c-2.56-0.441-5.12-0.794-7.768-1.148c-7.053-0.892-14.159-1.333-21.274-1.324
	c-27.33-0.168-54.272,6.479-78.389,19.332c0.706,1.059,1.677,2.56,2.913,4.502c0.353,0.618,0.794,1.324,1.236,2.03
	c1.589,2.56,3.531,5.65,5.65,9.092c0.132,0.3,0.274,0.6,0.441,0.883c0,0.088,0.088,0.177,0.177,0.265
	c0.088,0.088,0.088,0.177,0.265,0.353c1.501,2.56,3.09,5.297,4.679,8.21c0.706,1.236,1.501,2.472,2.207,3.796
	c2.472,4.326,4.943,8.916,7.503,13.771c1.236,2.383,2.472,4.767,3.708,7.327c0.168,0.397,0.38,0.786,0.618,1.148
	c1.236,2.648,2.56,5.297,3.796,7.945c0.794,1.501,1.501,3.09,2.207,4.679c1.148,2.56,2.295,5.12,3.354,7.68
	c0.265,0.53,0.441,1.148,0.706,1.677c0.706,1.589,1.324,3.178,1.942,4.767c0.079,0.282,0.203,0.547,0.353,0.794l0.794,2.119
	c0.441,1.148,0.794,2.295,1.236,3.443c0.353,0.971,0.706,2.03,1.059,3.001c0.53,1.677,1.059,3.354,1.589,4.943
	c0.441,1.148,0.794,2.383,1.148,3.531c0.618,2.207,1.236,4.502,1.766,6.709c0.265,0.971,0.441,1.942,0.618,2.913
	c0.071,0.168,0.106,0.344,0.088,0.53c0.088,0.088,0.088,0.088,0.088,0.177c0.265,1.236,0.441,2.383,0.618,3.619
	c0.106,0.433,0.159,0.874,0.177,1.324c0.177,0.45,0.265,0.927,0.265,1.412c0.177,0.786,0.265,1.58,0.265,2.383v0.265
	c0.088,0.441,0.088,0.794,0.177,1.236v0.177c0.177,1.73,0.265,3.469,0.265,5.208v40.077c-17.267,5.288-30.438,19.332-34.604,36.899
	c-0.203,0.812-0.327,1.642-0.353,2.472c-0.256,1.457-0.371,2.931-0.353,4.414c0.512,12.65,5.411,24.726,13.859,34.163
	c-20.551-4.882-40.157-13.144-57.997-24.452c-22.175-13.912-40.58-33.077-53.583-55.79c-6.744-11.988-11.626-24.938-14.477-38.4
	c-7.398-36.89,1.412-75.185,24.188-105.137C137.269,28.248,192.706,0,256,0h0.53c8.236-0.009,16.463,0.521,24.629,1.589
	c3.001,0.353,6.003,0.794,8.916,1.324c2.648,0.441,5.385,0.971,8.033,1.501c42.867,8.077,81.223,31.718,107.697,66.383
	C423.071,93.625,432.455,121.45,432.552,150.069z"/>
<path style="fill:#464F5D;" d="M282.483,260.414c-2.966,12.412-13.745,21.389-26.483,22.069
	c-12.738-0.68-23.517-9.657-26.483-22.069c0-7.309,11.855-13.241,26.483-13.241C270.627,247.173,282.483,253.105,282.483,260.414z"
	/>
<circle style="fill:#FFFFFF;" cx="176.552" cy="176.552" r="52.966"/>
<circle style="fill:#2C2F38;" cx="176.552" cy="176.552" r="17.655"/>
<circle style="fill:#FFFFFF;" cx="335.448" cy="176.552" r="52.966"/>
<circle style="fill:#2C2F38;" cx="335.448" cy="176.552" r="17.655"/>
<g>
	<path style="fill:#F29C1F;" d="M79.448,150.069c0,8.686,0.856,17.346,2.56,25.865l-2.56,0.618c0,0-33.368,24.099-25.247,88.276
		l3.972,5.032c-1.501,1.236-3.09,2.56-4.767,3.796c-35.046,26.483-35.046,0-35.046,0S9.622,158.897,53.407,105.931
		C66.551,88.7,85.01,76.279,105.931,70.621l0.265,0.177C88.929,93.625,79.545,121.45,79.448,150.069z"/>
	<path style="fill:#F29C1F;" d="M493.639,273.655c0,0,0,26.483-35.046,0c-1.677-1.236-3.266-2.56-4.767-3.796l3.972-5.032
		c8.121-64.177-25.247-88.276-25.247-88.276l-2.56-0.618c-0.018-0.185,0.018-0.362,0.088-0.53c0.53-2.737,0.971-5.473,1.324-8.298
		c0.353-2.383,0.618-4.767,0.794-7.239c-0.009-0.415,0.018-0.83,0.088-1.236c0.177-2.825,0.265-5.65,0.265-8.563
		c-0.097-28.619-9.481-56.444-26.748-79.272l0.265-0.177c20.921,5.658,39.38,18.079,52.524,35.31
		C502.378,158.897,493.639,273.655,493.639,273.655z"/>
</g>
<path style="fill:#FAC176;" d="M361.931,270.124v188.91H150.069v-188.91c17.841,11.308,37.447,19.571,57.997,24.452
	c20.913,26.474,59.33,30.976,85.804,10.063c3.734-2.948,7.115-6.329,10.063-10.063C324.484,289.704,344.091,281.432,361.931,270.124
	z"/>
<path style="fill:#E57E25;" d="M287.338,378.086l-22.51,15.095v65.854h-17.655v-65.854l-22.51-15.095
	c-4.061-2.666-5.191-8.113-2.525-12.173c2.666-4.061,8.113-5.191,12.173-2.525c0.018,0.018,0.044,0.026,0.062,0.044L256,377.821
	l21.628-14.389c4.034-2.701,9.49-1.615,12.191,2.419c2.701,4.034,1.615,9.49-2.419,12.191
	C287.382,378.059,287.356,378.068,287.338,378.086z"/>
<path style="fill:#F29C1F;" d="M150.069,326.621v132.414c-9.737,0.026-17.629,7.918-17.655,17.655v-8.828H88.276
	c-2.825-0.035-5.641,0.441-8.298,1.412l-0.53-1.412v-44.491C79.448,370.582,150.069,326.621,150.069,326.621z"/>
<path style="fill:#F18D46;" d="M150.069,467.862V512H61.793v-17.655c-0.026-11.423,7.327-21.548,18.185-25.07
	c2.657-0.971,5.473-1.448,8.298-1.412H150.069z"/>
<path style="fill:#F29C1F;" d="M432.552,423.371v44.491l-0.53,1.412c-2.657-0.971-5.473-1.448-8.298-1.412h-44.138v8.828
	c-0.026-9.737-7.918-17.629-17.655-17.655V326.621C361.931,326.621,432.552,370.582,432.552,423.371z"/>
<path style="fill:#D25627;" d="M450.207,494.345V512h-88.276v-44.138h61.793c2.825-0.035,5.641,0.441,8.298,1.412
	C442.88,472.797,450.233,482.922,450.207,494.345z"/>
<g>
	<path style="fill:#E64C3C;" d="M96.486,214.334c-7.433,21.672-20.683,40.889-38.312,55.525l-3.972-5.032
		c-8.121-64.177,25.247-88.276,25.247-88.276l2.56-0.618C84.86,189.396,89.741,202.346,96.486,214.334z"/>
	<path style="fill:#E64C3C;" d="M457.799,264.828l-3.972,5.032c-17.629-14.636-30.879-33.854-38.312-55.526
		c1.236-2.207,2.383-4.414,3.531-6.709c0.433-0.794,0.821-1.624,1.148-2.472c0.883-1.942,1.766-3.884,2.56-5.826
		c0.441-1.059,0.794-2.03,1.236-3.001c0.353-1.059,0.794-2.119,1.148-3.09l0.794-2.383c0.353-1.059,0.706-2.119,0.971-3.178
		c0.441-1.324,0.883-2.737,1.236-4.149c0.618-2.295,1.236-4.59,1.677-6.886c0.026-0.238,0.088-0.477,0.177-0.706l2.56,0.618
		C432.552,176.552,465.92,200.651,457.799,264.828z"/>
</g>
<path style="fill:#E57E25;" d="M256,459.035V512H132.414v-35.31c0.026-9.737,7.918-17.629,17.655-17.655H256z"/>
<path style="fill:#C03A2B;" d="M379.586,476.69V512H256v-52.966h105.931C371.668,459.061,379.56,466.953,379.586,476.69z"/>
<g>
	<path style="fill:#D25627;" d="M176.552,494.345V512h-17.655v-17.655c0-4.873,3.955-8.828,8.828-8.828
		S176.552,489.472,176.552,494.345z"/>
	<path style="fill:#D25627;" d="M211.862,494.345V512h-17.655v-17.655c0-4.873,3.955-8.828,8.828-8.828
		C207.907,485.517,211.862,489.472,211.862,494.345z"/>
	<path style="fill:#D25627;" d="M317.793,494.345V512h-17.655v-17.655c0-4.873,3.955-8.828,8.828-8.828
		S317.793,489.472,317.793,494.345z"/>
	<path style="fill:#D25627;" d="M353.104,494.345V512h-17.655v-17.655c0-4.873,3.955-8.828,8.828-8.828
		C349.149,485.517,353.104,489.472,353.104,494.345z"/>
</g>
<g>
</g>
<g>
</g>
<g>
</g>
<g>
</g>
<g>
</g>
<g>
</g>
<g>
</g>
<g>
</g>
<g>
</g>
<g>
</g>
<g>
</g>
<g>
</g>
<g>
</g>
<g>
</g>
<g>
</g>
</svg>
